<svg width="492" height="467" viewBox="0 0 492 467" fill="none" xmlns="http://www.w3.org/2000/svg">
<path d="M444.978 464.681H47.0222H46.944C39.4805 464.681 33.777 464.681 29.2248 464.309C24.6371 463.934 21.071 463.173 17.9186 461.567C12.5429 458.828 8.17238 454.457 5.43333 449.081C3.82714 445.929 3.0662 442.363 2.69136 437.775C2.31944 433.223 2.31944 427.52 2.31944 420.056V419.978V217.845L2.31944 217.48C2.31917 208.639 2.31903 203.793 3.75537 199.435C5.02572 195.581 7.10256 192.042 9.84761 189.053C12.9514 185.674 17.182 183.31 24.9011 178.998L25.2196 178.82L114.4 128.997L114.54 128.919C118.051 126.957 119.977 125.881 122.028 125.117C123.848 124.439 125.732 123.948 127.652 123.653C129.815 123.319 132.021 123.319 136.043 123.319H136.203H355.797H355.957C359.979 123.319 362.185 123.319 364.348 123.653C366.268 123.948 368.152 124.439 369.973 125.117C372.023 125.881 373.949 126.957 377.46 128.919L377.6 128.997L466.78 178.82L467.099 178.998C474.818 183.31 479.049 185.673 482.152 189.053C484.897 192.042 486.974 195.581 488.245 199.435C489.681 203.793 489.681 208.639 489.681 217.48V217.845V419.978V420.056C489.681 427.52 489.681 433.223 489.309 437.775C488.934 442.363 488.173 445.929 486.567 449.081C483.828 454.457 479.457 458.828 474.081 461.567C470.929 463.173 467.363 463.934 462.775 464.309C458.223 464.681 452.52 464.681 445.056 464.681H444.978Z" fill="url(#paint0_linear_203_2)"/>
<path d="M444.978 464.681H47.0222H46.944C39.4805 464.681 33.777 464.681 29.2248 464.309C24.6371 463.934 21.071 463.173 17.9186 461.567C12.5429 458.828 8.17238 454.457 5.43333 449.081C3.82714 445.929 3.0662 442.363 2.69136 437.775C2.31944 433.223 2.31944 427.52 2.31944 420.056V419.978V217.845L2.31944 217.48C2.31917 208.639 2.31903 203.793 3.75537 199.435C5.02572 195.581 7.10256 192.042 9.84761 189.053C12.9514 185.674 17.182 183.31 24.9011 178.998L25.2196 178.82L114.4 128.997L114.54 128.919C118.051 126.957 119.977 125.881 122.028 125.117C123.848 124.439 125.732 123.948 127.652 123.653C129.815 123.319 132.021 123.319 136.043 123.319H136.203H355.797H355.957C359.979 123.319 362.185 123.319 364.348 123.653C366.268 123.948 368.152 124.439 369.973 125.117C372.023 125.881 373.949 126.957 377.46 128.919L377.6 128.997L466.78 178.82L467.099 178.998C474.818 183.31 479.049 185.673 482.152 189.053C484.897 192.042 486.974 195.581 488.245 199.435C489.681 203.793 489.681 208.639 489.681 217.48V217.845V419.978V420.056C489.681 427.52 489.681 433.223 489.309 437.775C488.934 442.363 488.173 445.929 486.567 449.081C483.828 454.457 479.457 458.828 474.081 461.567C470.929 463.173 467.363 463.934 462.775 464.309C458.223 464.681 452.52 464.681 445.056 464.681H444.978Z" fill="url(#paint1_linear_203_2)" fill-opacity="0.2" style="mix-blend-mode:overlay"/>
<path d="M444.978 464.681H47.0222H46.944C39.4805 464.681 33.777 464.681 29.2248 464.309C24.6371 463.934 21.071 463.173 17.9186 461.567C12.5429 458.828 8.17238 454.457 5.43333 449.081C3.82714 445.929 3.0662 442.363 2.69136 437.775C2.31944 433.223 2.31944 427.52 2.31944 420.056V419.978V217.845L2.31944 217.48C2.31917 208.639 2.31903 203.793 3.75537 199.435C5.02572 195.581 7.10256 192.042 9.84761 189.053C12.9514 185.674 17.182 183.31 24.9011 178.998L25.2196 178.82L114.4 128.997L114.54 128.919C118.051 126.957 119.977 125.881 122.028 125.117C123.848 124.439 125.732 123.948 127.652 123.653C129.815 123.319 132.021 123.319 136.043 123.319H136.203H355.797H355.957C359.979 123.319 362.185 123.319 364.348 123.653C366.268 123.948 368.152 124.439 369.973 125.117C372.023 125.881 373.949 126.957 377.46 128.919L377.6 128.997L466.78 178.82L467.099 178.998C474.818 183.31 479.049 185.673 482.152 189.053C484.897 192.042 486.974 195.581 488.245 199.435C489.681 203.793 489.681 208.639 489.681 217.48V217.845V419.978V420.056C489.681 427.52 489.681 433.223 489.309 437.775C488.934 442.363 488.173 445.929 486.567 449.081C483.828 454.457 479.457 458.828 474.081 461.567C470.929 463.173 467.363 463.934 462.775 464.309C458.223 464.681 452.52 464.681 445.056 464.681H444.978Z" stroke="url(#paint2_linear_203_2)" stroke-width="3.36111"/>
<path d="M415.805 84.4586L107.759 57.5081C95.9706 56.4767 85.5777 65.1973 84.5464 76.9861L56.717 395.077C55.6857 406.865 64.4063 417.258 76.1951 418.29L384.241 445.24C396.029 446.272 406.422 437.551 407.454 425.762L435.283 107.672C436.314 95.8828 427.594 85.4899 415.805 84.4586Z" fill="white"/>
<path d="M415.805 84.4586L107.759 57.5081C95.9706 56.4767 85.5777 65.1973 84.5464 76.9861L56.717 395.077C55.6857 406.865 64.4063 417.258 76.1951 418.29L384.241 445.24C396.029 446.272 406.422 437.551 407.454 425.762L435.283 107.672C436.314 95.8828 427.594 85.4899 415.805 84.4586Z" fill="url(#paint3_linear_203_2)" fill-opacity="0.02" style="mix-blend-mode:multiply"/>
<path d="M415.805 84.4586L107.759 57.5081C95.9706 56.4767 85.5777 65.1973 84.5464 76.9861L56.717 395.077C55.6857 406.865 64.4063 417.258 76.1951 418.29L384.241 445.24C396.029 446.272 406.422 437.551 407.454 425.762L435.283 107.672C436.314 95.8828 427.594 85.4899 415.805 84.4586Z" stroke="url(#paint4_linear_203_2)" stroke-width="2.52083"/>
<rect x="111.47" y="93.8044" width="60.5324" height="5" transform="rotate(5.38483 111.47 93.8044)" fill="#D9D9D9"/>
<rect x="109.458" y="128.065" width="155.673" height="5" transform="rotate(5.25997 109.458 128.065)" fill="#D9D9D9"/>
<rect x="107.458" y="144" width="163.373" height="5" transform="rotate(5.25997 107.458 144)" fill="#D9D9D9"/>
<rect x="107.458" y="164" width="198.906" height="5" transform="rotate(5.25997 107.458 164)" fill="#D9D9D9"/>
<rect x="104.458" y="179" width="274.728" height="5" transform="rotate(5.25997 104.458 179)" fill="#D9D9D9"/>
<rect x="101.458" y="194" width="274.728" height="5" transform="rotate(5.25997 101.458 194)" fill="#D9D9D9"/>
<rect x="101.458" y="210" width="274.728" height="5" transform="rotate(5.25997 101.458 210)" fill="#D9D9D9"/>
<rect x="101.458" y="230" width="66.6366" height="5" transform="rotate(5.25997 101.458 230)" fill="#D9D9D9"/>
<rect x="97.4584" y="262" width="267.504" height="5" transform="rotate(5.25997 97.4584 262)" fill="#D9D9D9"/>
<rect x="94.4584" y="277" width="267.504" height="5" transform="rotate(5.25997 94.4584 277)" fill="#D9D9D9"/>
<rect x="89.4584" y="295" width="267.504" height="5" transform="rotate(5.25997 89.4584 295)" fill="#D9D9D9"/>
<rect x="86.4584" y="312" width="267.504" height="5" transform="rotate(5.25997 86.4584 312)" fill="#D9D9D9"/>
<mask id="mask0_203_2" style="mask-type:alpha" maskUnits="userSpaceOnUse" x="4" y="49" width="484" height="414">
<path d="M4 209.206C4 200.146 4 195.615 5.31902 191.561C6.48608 187.973 8.39496 184.672 10.9216 181.87C13.7773 178.704 17.7034 176.443 25.5557 171.922L224.533 57.3595C232.355 52.8563 236.266 50.6047 240.422 49.7233C244.1 48.9434 247.9 48.9434 251.578 49.7233C255.734 50.6047 259.645 52.8563 267.467 57.3595L466.444 171.922C474.297 176.444 478.223 178.704 481.078 181.87C483.605 184.672 485.514 187.973 486.681 191.561C488 195.615 488 200.146 488 209.207V419.978C488 435.037 488 442.567 485.069 448.318C482.491 453.378 478.378 457.491 473.318 460.069C467.567 463 460.037 463 444.978 463H47.0222C31.963 463 24.4334 463 18.6816 460.069C13.6221 457.491 9.50864 453.378 6.93071 448.318C4 442.567 4 435.037 4 419.978V209.206Z" fill="black"/>
</mask>
<g mask="url(#mask0_203_2)">
<path d="M4 206L3.99999 528.667L168.448 401.352C183.411 389.768 190.893 383.976 193.585 376.926C195.944 370.749 195.944 363.918 193.585 357.74C190.893 350.691 183.411 344.899 168.448 333.315L4 206Z" fill="url(#paint5_linear_203_2)"/>
<path fill-rule="evenodd" clip-rule="evenodd" d="M0.63887 199.147L0.638856 535.52L186.983 391.253C202.626 379.143 202.626 355.524 186.983 343.414L0.63887 199.147ZM3.99998 206L184.926 346.072C198.83 356.836 198.83 377.831 184.926 388.595L3.99997 528.667L3.99998 206Z" fill="#475569" fill-opacity="0.06"/>
<g filter="url(#filter0_di_203_2)">
<path d="M488 206L488 528.667L323.552 401.352C308.589 389.768 301.107 383.976 298.415 376.926C296.056 370.749 296.056 363.918 298.415 357.741C301.107 350.691 308.589 344.899 323.552 333.315L488 206Z" fill="url(#paint6_linear_203_2)"/>
</g>
<g filter="url(#filter1_i_203_2)">
<path d="M4 463L488 463L275.224 266.051C264.921 256.513 259.769 251.745 253.913 249.942C248.757 248.354 243.243 248.354 238.087 249.942C232.231 251.745 227.079 256.513 216.776 266.051L4 463Z" fill="url(#paint7_linear_203_2)"/>
</g>
<path d="M4 268L4 463H488V268" stroke="url(#paint8_linear_203_2)" stroke-width="53.7778"/>
</g>
<circle cx="375" cy="94" r="94" fill="url(#paint9_linear_203_2)"/>
<path d="M320.065 100.646L360.305 148.935L428.714 40.2857" stroke="white" stroke-width="16.0962" stroke-linecap="round" stroke-linejoin="round"/>
<defs>
<filter id="filter0_di_203_2" x="236.146" y="185.833" width="258.576" height="389.889" filterUnits="userSpaceOnUse" color-interpolation-filters="sRGB">
<feFlood flood-opacity="0" result="BackgroundImageFix"/>
<feColorMatrix in="SourceAlpha" type="matrix" values="0 0 0 0 0 0 0 0 0 0 0 0 0 0 0 0 0 0 127 0" result="hardAlpha"/>
<feOffset dx="-26.8889" dy="13.4444"/>
<feGaussianBlur stdDeviation="16.8056"/>
<feComposite in2="hardAlpha" operator="out"/>
<feColorMatrix type="matrix" values="0 0 0 0 0 0 0 0 0 0 0 0 0 0 0 0 0 0 0.1 0"/>
<feBlend mode="normal" in2="BackgroundImageFix" result="effect1_dropShadow_203_2"/>
<feBlend mode="normal" in="SourceGraphic" in2="effect1_dropShadow_203_2" result="shape"/>
<feColorMatrix in="SourceAlpha" type="matrix" values="0 0 0 0 0 0 0 0 0 0 0 0 0 0 0 0 0 0 127 0" result="hardAlpha"/>
<feOffset dy="3.36111"/>
<feComposite in2="hardAlpha" operator="arithmetic" k2="-1" k3="1"/>
<feColorMatrix type="matrix" values="0 0 0 0 1 0 0 0 0 1 0 0 0 0 1 0 0 0 0.6 0"/>
<feBlend mode="normal" in2="shape" result="effect2_innerShadow_203_2"/>
</filter>
<filter id="filter1_i_203_2" x="4" y="248.751" width="484" height="214.249" filterUnits="userSpaceOnUse" color-interpolation-filters="sRGB">
<feFlood flood-opacity="0" result="BackgroundImageFix"/>
<feBlend mode="normal" in="SourceGraphic" in2="BackgroundImageFix" result="shape"/>
<feColorMatrix in="SourceAlpha" type="matrix" values="0 0 0 0 0 0 0 0 0 0 0 0 0 0 0 0 0 0 127 0" result="hardAlpha"/>
<feOffset dy="3.36111"/>
<feComposite in2="hardAlpha" operator="arithmetic" k2="-1" k3="1"/>
<feColorMatrix type="matrix" values="0 0 0 0 1 0 0 0 0 1 0 0 0 0 1 0 0 0 0.6 0"/>
<feBlend mode="normal" in2="shape" result="effect1_innerShadow_203_2"/>
</filter>
<linearGradient id="paint0_linear_203_2" x1="145.167" y1="401.033" x2="300.24" y2="171.318" gradientUnits="userSpaceOnUse">
<stop stop-color="#FF216A"/>
<stop offset="1" stop-color="#FF77A4"/>
</linearGradient>
<linearGradient id="paint1_linear_203_2" x1="246" y1="125" x2="246" y2="286.958" gradientUnits="userSpaceOnUse">
<stop offset="0.356522" stop-color="#1F0548" stop-opacity="0"/>
<stop offset="0.569565" stop-color="#1F0548"/>
</linearGradient>
<linearGradient id="paint2_linear_203_2" x1="246" y1="463" x2="246" y2="125" gradientUnits="userSpaceOnUse">
<stop stop-color="#475569" stop-opacity="0.06"/>
<stop offset="1" stop-color="#475569" stop-opacity="0"/>
</linearGradient>
<linearGradient id="paint3_linear_203_2" x1="120.436" y1="105.432" x2="359.594" y2="457.002" gradientUnits="userSpaceOnUse">
<stop stop-color="#9116C2" stop-opacity="0.13"/>
<stop offset="0.538584" stop-color="#9A01D6"/>
<stop offset="0.955042" stop-color="#FF91CC"/>
</linearGradient>
<linearGradient id="paint4_linear_203_2" x1="261.672" y1="72.2389" x2="230.328" y2="430.509" gradientUnits="userSpaceOnUse">
<stop stop-color="#422C84" stop-opacity="0.06"/>
<stop offset="1" stop-color="#475569" stop-opacity="0"/>
</linearGradient>
<linearGradient id="paint5_linear_203_2" x1="108.194" y1="528.667" x2="108.194" y2="206" gradientUnits="userSpaceOnUse">
<stop offset="0.28125" stop-color="#EEF0F1"/>
<stop offset="0.78125" stop-color="#F9FAFA"/>
</linearGradient>
<linearGradient id="paint6_linear_203_2" x1="383.806" y1="528.667" x2="383.806" y2="206" gradientUnits="userSpaceOnUse">
<stop offset="0.28125" stop-color="#EEF0F1"/>
<stop offset="0.78125" stop-color="#F9FAFA"/>
</linearGradient>
<linearGradient id="paint7_linear_203_2" x1="246" y1="239" x2="246" y2="462.999" gradientUnits="userSpaceOnUse">
<stop offset="0.322581" stop-color="#FAFAFB"/>
<stop offset="1" stop-color="#EEF0F1"/>
</linearGradient>
<linearGradient id="paint8_linear_203_2" x1="246" y1="269.822" x2="246" y2="463" gradientUnits="userSpaceOnUse">
<stop stop-color="#F9FAFA"/>
<stop offset="0.693396" stop-color="#EEF0F1"/>
</linearGradient>
<linearGradient id="paint9_linear_203_2" x1="375" y1="0" x2="375" y2="188" gradientUnits="userSpaceOnUse">
<stop stop-color="#90EE90"/>
<stop offset="1" stop-color="#008000"/>
</linearGradient>
</defs>
</svg>
