<svg width="19" height="16" viewBox="0 0 19 16" fill="none" xmlns="http://www.w3.org/2000/svg">
<path d="M15.9375 0.483704H2.8125C2.06658 0.483704 1.35121 0.78002 0.823762 1.30747C0.296316 1.83491 0 2.55028 0 3.2962V12.6712C0 13.4171 0.296316 14.1325 0.823762 14.6599C1.35121 15.1874 2.06658 15.4837 2.8125 15.4837H15.9375C16.6834 15.4837 17.3988 15.1874 17.9262 14.6599C18.4537 14.1325 18.75 13.4171 18.75 12.6712V3.2962C18.75 2.55028 18.4537 1.83491 17.9262 1.30747C17.3988 0.78002 16.6834 0.483704 15.9375 0.483704V0.483704ZM15.5531 2.3587L10.0406 7.8712C9.95347 7.95907 9.84978 8.02882 9.73554 8.07641C9.6213 8.12401 9.49876 8.14851 9.375 8.14851C9.25124 8.14851 9.1287 8.12401 9.01446 8.07641C8.90022 8.02882 8.79653 7.95907 8.70937 7.8712L3.19687 2.3587H15.5531ZM16.875 12.6712C16.875 12.9198 16.7762 13.1583 16.6004 13.3341C16.4246 13.5099 16.1861 13.6087 15.9375 13.6087H2.8125C2.56386 13.6087 2.3254 13.5099 2.14959 13.3341C1.97377 13.1583 1.875 12.9198 1.875 12.6712V3.68058L7.3875 9.19308C7.91485 9.71977 8.62969 10.0156 9.375 10.0156C10.1203 10.0156 10.8352 9.71977 11.3625 9.19308L16.875 3.68058V12.6712Z" fill="#424242"/>
</svg>
