<svg width="15" height="16" viewBox="0 0 15 16" fill="none" xmlns="http://www.w3.org/2000/svg">
<path d="M10.2286 8.38734C10.9635 7.80917 11.4999 7.01632 11.7632 6.1191C12.0265 5.22188 12.0035 4.26491 11.6976 3.38132C11.3917 2.49774 10.818 1.73147 10.0563 1.18913C9.29458 0.64679 8.38278 0.355347 7.44773 0.355347C6.51268 0.355347 5.60088 0.64679 4.83918 1.18913C4.07748 1.73147 3.50376 2.49774 3.19784 3.38132C2.89192 4.26491 2.869 5.22188 3.13229 6.1191C3.39557 7.01632 3.93196 7.80917 4.66683 8.38734C3.40762 8.89183 2.30891 9.72858 1.48784 10.8084C0.666763 11.8882 0.154107 13.1706 0.00452127 14.5188C-0.00630654 14.6172 0.00235992 14.7168 0.0300256 14.8119C0.0576914 14.907 0.103815 14.9957 0.165762 15.073C0.29087 15.229 0.472839 15.329 0.671637 15.3508C0.870434 15.3727 1.06978 15.3147 1.22581 15.1896C1.38184 15.0645 1.48179 14.8825 1.50366 14.6837C1.66825 13.2184 2.36692 11.8652 3.46619 10.8825C4.56545 9.89979 5.98825 9.35655 7.46272 9.35655C8.9372 9.35655 10.36 9.89979 11.4593 10.8825C12.5585 11.8652 13.2572 13.2184 13.4218 14.6837C13.4422 14.8679 13.53 15.038 13.6685 15.1612C13.8069 15.2844 13.986 15.3519 14.1714 15.3508H14.2538C14.4503 15.3282 14.6299 15.2289 14.7534 15.0744C14.877 14.92 14.9345 14.723 14.9134 14.5263C14.7631 13.1742 14.2477 11.8886 13.4224 10.8071C12.5971 9.72563 11.4931 8.88916 10.2286 8.38734ZM7.44773 7.85514C6.85473 7.85514 6.27504 7.6793 5.78198 7.34984C5.28892 7.02039 4.90462 6.55212 4.67769 6.00426C4.45076 5.4564 4.39138 4.85355 4.50707 4.27194C4.62276 3.69033 4.90832 3.15609 5.32763 2.73677C5.74695 2.31746 6.28119 2.0319 6.8628 1.91621C7.4444 1.80052 8.04726 1.8599 8.59512 2.08683C9.14298 2.31376 9.61125 2.69806 9.9407 3.19112C10.2702 3.68419 10.446 4.26387 10.446 4.85687C10.446 5.65206 10.1301 6.41469 9.56783 6.97697C9.00554 7.53926 8.24292 7.85514 7.44773 7.85514Z" fill="#424242"/>
</svg>
