<svg width="12" height="16" viewBox="0 0 12 16" fill="none" xmlns="http://www.w3.org/2000/svg">
<path d="M6 8.85535C5.80109 8.85535 5.61032 8.93436 5.46967 9.07502C5.32902 9.21567 5.25 9.40643 5.25 9.60535V11.8553C5.25 12.0543 5.32902 12.245 5.46967 12.3857C5.61032 12.5263 5.80109 12.6053 6 12.6053C6.19891 12.6053 6.38968 12.5263 6.53033 12.3857C6.67098 12.245 6.75 12.0543 6.75 11.8553V9.60535C6.75 9.40643 6.67098 9.21567 6.53033 9.07502C6.38968 8.93436 6.19891 8.85535 6 8.85535ZM9.75 5.85535V4.35535C9.75 3.36078 9.35491 2.40696 8.65165 1.7037C7.94839 1.00043 6.99456 0.605347 6 0.605347C5.00544 0.605347 4.05161 1.00043 3.34835 1.7037C2.64509 2.40696 2.25 3.36078 2.25 4.35535V5.85535C1.65326 5.85535 1.08097 6.0924 0.65901 6.51436C0.237053 6.93631 0 7.50861 0 8.10535V13.3553C0 13.9521 0.237053 14.5244 0.65901 14.9463C1.08097 15.3683 1.65326 15.6053 2.25 15.6053H9.75C10.3467 15.6053 10.919 15.3683 11.341 14.9463C11.7629 14.5244 12 13.9521 12 13.3553V8.10535C12 7.50861 11.7629 6.93631 11.341 6.51436C10.919 6.0924 10.3467 5.85535 9.75 5.85535ZM3.75 4.35535C3.75 3.75861 3.98705 3.18631 4.40901 2.76436C4.83097 2.3424 5.40326 2.10535 6 2.10535C6.59674 2.10535 7.16903 2.3424 7.59099 2.76436C8.01295 3.18631 8.25 3.75861 8.25 4.35535V5.85535H3.75V4.35535ZM10.5 13.3553C10.5 13.5543 10.421 13.745 10.2803 13.8857C10.1397 14.0263 9.94891 14.1053 9.75 14.1053H2.25C2.05109 14.1053 1.86032 14.0263 1.71967 13.8857C1.57902 13.745 1.5 13.5543 1.5 13.3553V8.10535C1.5 7.90643 1.57902 7.71567 1.71967 7.57502C1.86032 7.43436 2.05109 7.35535 2.25 7.35535H9.75C9.94891 7.35535 10.1397 7.43436 10.2803 7.57502C10.421 7.71567 10.5 7.90643 10.5 8.10535V13.3553Z" fill="#424242"/>
</svg>
